<?xml version="1.0" encoding="utf-8"?>
<!-- Generator: Adobe Illustrator 26.5.1, SVG Export Plug-In . SVG Version: 6.00 Build 0)  -->
<svg version="1.1" id="Layer_1" xmlns="http://www.w3.org/2000/svg" xmlns:xlink="http://www.w3.org/1999/xlink" x="0px" y="0px"
	 viewBox="0 0 1000 300" style="enable-background:new 0 0 1000 300;" xml:space="preserve">
<path style="fill:#89191A;" d="M0,68.6h1000V300H0c0-46.4,0-92.8,0-139.2C0,130.1,0,99.3,0,68.6z"/>
<path style="fill:none;" d="M353.4,373.2c0.4-0.1,0.9-0.3,1.3-0.4"/>
<polygon style="fill:#5C0A0C;" points="277.8,167 294.4,135 299.1,156.3 311,122.3 315,167 "/>
<polyline style="fill:#5C0A0C;" points="472.4,265.5 485.7,234.9 495,254.9 505,220.9 513,254.9 520.3,236.9 527.6,265.5 "/>
<ellipse style="fill:#231F20;" cx="949" cy="110.5" rx="21.3" ry="7.5"/>
<ellipse style="fill:#231F20;" cx="173" cy="263.5" rx="81" ry="15.5"/>
<ellipse style="fill:#231F20;" cx="522" cy="164.475" rx="35" ry="19.825"/>
<polygon style="fill:#511110;stroke:#000000;stroke-miterlimit:10;" points="687,279 717,158 745,243.2 812,122.3 843,279 941,177 
	955,279 "/>
</svg>
