<?xml version="1.0" encoding="utf-8"?>
<!-- Generator: Adobe Illustrator 26.5.1, SVG Export Plug-In . SVG Version: 6.00 Build 0)  -->
<svg version="1.1" id="Layer_1" xmlns="http://www.w3.org/2000/svg" xmlns:xlink="http://www.w3.org/1999/xlink" x="0px" y="0px"
	 viewBox="0 0 1000 300" style="enable-background:new 0 0 1000 300;" xml:space="preserve">
<path style="fill:#89191A;" d="M0,68.6h1000V300H0c0-46.4,0-92.8,0-139.2C0,130.1,0,99.3,0,68.6z"/>
<path style="fill:none;" d="M353.4,373.2c0.4-0.1,0.9-0.3,1.3-0.4"/>
<polygon style="fill:#5C0A0C;" points="150.7,156.1 167.3,124.1 172,145.4 183.9,111.4 187.9,156.1 "/>
<polyline style="fill:#5C0A0C;" points="407.4,272.6 420.7,242 430,262 440,228 448,262 455.3,244 462.6,272.6 "/>
<ellipse style="opacity:0.83;fill:#231F20;" cx="430.5" cy="141.5" rx="69.5" ry="20.5"/>
<ellipse style="fill:#231F20;" cx="833.5" cy="147.85" rx="133.5" ry="36.45"/>
<ellipse style="fill:#231F20;" cx="56.5" cy="208" rx="13.5" ry="2"/>
<path style="fill:#FFFFFF;" d="M881.9518,184.3c-3.8301-8.2154-2.0827-18.9981,4.1086-25.3536
	c4.1765-4.2872,9.8684-6.467,15.532-7.74c7.5112-1.6882,15.4799-1.9522,22.734,0.7306c7.2541,2.6828,13.6924,8.6294,16.0055,16.4611
	"/>
<circle style="fill:#231F20;" cx="899.1187" cy="170.1187" r="8.1187"/>
<circle style="fill:#231F20;" cx="925.0093" cy="163.1093" r="7.0093"/>
</svg>
