<?xml version="1.0" encoding="utf-8"?>
<!-- Generator: Adobe Illustrator 26.5.1, SVG Export Plug-In . SVG Version: 6.00 Build 0)  -->
<svg version="1.1" id="Layer_1" xmlns="http://www.w3.org/2000/svg" xmlns:xlink="http://www.w3.org/1999/xlink" x="0px" y="0px"
	 viewBox="0 0 1000 300" style="enable-background:new 0 0 1000 300;" xml:space="preserve">
<path style="fill:#89191A;" d="M0,68.6h1000V300H0c0-46.4,0-92.8,0-139.2C0,130.1,0,99.3,0,68.6z"/>
<path style="fill:none;" d="M353.4,373.2c0.4-0.1,0.9-0.3,1.3-0.4"/>
<polygon style="fill:#5C0A0C;" points="492.2,267.9 508.8,235.9 513.5,257.2 525.4,223.2 529.4,267.9 "/>
<polyline style="fill:#5C0A0C;" points="834,200.7 847.3,170.1 856.6,190.1 866.6,156.1 874.6,190.1 881.9,172.1 889.2,200.7 "/>
<ellipse style="opacity:0.83;fill:#231F20;" cx="109.5" cy="134" rx="65.5" ry="9"/>
<ellipse style="fill:#231F20;" cx="432.75" cy="149" rx="78.05" ry="19"/>
<ellipse style="fill:#231F20;" cx="840.3" cy="265.5" rx="21.3" ry="7.5"/>
<ellipse style="fill:#231F20;" cx="232" cy="279.5" rx="16" ry="6.5"/>
</svg>
