<?xml version="1.0" encoding="utf-8"?>
<!-- Generator: Adobe Illustrator 26.5.1, SVG Export Plug-In . SVG Version: 6.00 Build 0)  -->
<svg version="1.1" id="Layer_1" xmlns="http://www.w3.org/2000/svg" xmlns:xlink="http://www.w3.org/1999/xlink" x="0px" y="0px"
	 viewBox="0 0 1000 300" style="enable-background:new 0 0 1000 300;" xml:space="preserve">
<rect y="68.6" style="fill:#89191A;" width="1000" height="231.4"/>
<ellipse style="opacity:0.6;fill:#231F20;enable-background:new    ;" cx="117.3" cy="257" rx="30.4" ry="12.9"/>
<path style="fill:none;" d="M353.4,373.2c0.4-0.1,0.9-0.3,1.3-0.4"/>
<ellipse style="fill:#FFFFFF;" cx="397.5" cy="205.1" rx="26.4" ry="23.9"/>
<circle style="fill:#231F20;" cx="411.3" cy="200.8" r="6"/>
<circle style="fill:#231F20;" cx="387.5" cy="201.1" r="5.8"/>
<rect x="385.8" y="222" style="fill:#FFFFFF;" width="27.9" height="18.2"/>
<rect x="387.5" y="219.3" style="fill:#231F20;" width="5.8" height="17.3"/>
<rect x="396" y="219.3" style="fill:#231F20;" width="5.8" height="17.3"/>
<rect x="405.3" y="219.3" style="fill:#231F20;" width="5.8" height="17.3"/>
<path style="fill:#ED2024;" d="M98.786,235.898c0.5661-3.3706,2.2728-6.4341,3.2324-9.7144
	c1.56-5.3325,1.0506-11.2419-1.3988-16.2288c2.944,1.6834,5.8081,3.8829,7.107,7.0157c1.0513,2.5356,0.9546,5.3742,1.2423,8.1039
	c0.2878,2.7298,1.1432,5.664,3.4203,7.1967c1.9487,1.3116,4.4609,1.2883,6.8051,1.4398c4.5351,0.2931,9.1883,1.5115,12.6081,4.5045
	s5.2817,8.0513,3.5883,12.2686c-1.3173,3.2808-4.5116,5.5237-7.9019,6.5262c-3.3903,1.0026-6.9949,0.9353-10.5264,0.7698
	c-5.817-0.2726-10.0221-0.0079-13.3135-4.9828C100.4435,247.9523,97.7928,241.8114,98.786,235.898z"/>
<path style="fill:#F68B62;" d="M125.997,212.4411c0.2705-4.1642-1.3637-8.4147-4.3543-11.3251
	c2.8133-0.198,5.5257,1.4596,7.1959,3.7321c1.6703,2.2725,2.4414,5.082,2.8866,7.867c0.4031,2.5221,0.4095,5.4926-1.5233,7.1637
	c-1.6645,1.4385-8.486,3.9026-10.3931,3.6237C123.2575,220.7597,125.7052,216.9326,125.997,212.4411z"/>
<path style="fill:#FBAA19;" d="M106.0569,191.2666c1.1542-0.894,2.5422-1.4267,3.7915-2.1822
	c5.9561-3.6017,7.7243-11.8037,5.9462-18.5332c5.1514,7.3506,10.5367,14.5373,16.1453,21.5454
	c-2.6959-3.4097-7.6387-4.3479-11.8862-3.424c-4.2475,0.9239-7.9786,3.3761-11.5997,5.7806
	c-1.8747,1.2448-3.7377,2.623-5.7343,3.5955C102.3069,195.6649,104.1067,192.7776,106.0569,191.2666z"/>
<path style="fill:#FEDE8A;" d="M106.1073,229c1.1286,2.8265,2.3901,5.8227,4.9136,7.5242c1.2064,0.8134,2.6214,1.2662,4.0459,1.5628
	c2.4414,0.5083,4.9541,0.5855,7.4067,1.0368s4.9329,1.3392,6.6464,3.1511c1.7135,1.8119,2.4418,4.7195,1.1846,6.8732
	c-1.2198,2.0896-3.7934,2.8836-6.1318,3.5052c-3.265,0.868-6.7494,1.7332-9.9644,0.6953c-2.2884-0.7387-4.1715-2.3677-5.886-4.0538
	c-1.304-1.2824-2.5692-2.6465-3.3952-4.2783c-1.4236-2.8123-1.439-6.1908-1.0424-9.2525
	C104.0652,234.3704,106.4456,229.8474,106.1073,229z"/>
</svg>
