<?xml version="1.0" encoding="utf-8"?>
<!-- Generator: Adobe Illustrator 26.5.1, SVG Export Plug-In . SVG Version: 6.00 Build 0)  -->
<svg version="1.1" id="Layer_1" xmlns="http://www.w3.org/2000/svg" xmlns:xlink="http://www.w3.org/1999/xlink" x="0px" y="0px"
	 viewBox="0 0 1000 300" style="enable-background:new 0 0 1000 300;" xml:space="preserve">
<rect y="68.6237" style="fill:#89191A;" width="1000" height="231.3763"/>
<path style="fill:none;" d="M353.3893,373.175c0.4434-0.1478,0.8868-0.2956,1.3302-0.4434"/>
<ellipse style="fill:#FFFFFF;" cx="598.8046" cy="123.0888" rx="26.3816" ry="23.9277"/>
<circle style="fill:#231F20;" cx="609.4125" cy="114.6798" r="6.0192"/>
<circle style="fill:#231F20;" cx="587.9219" cy="114.6798" r="5.7838"/>
<rect x="584.8379" y="137.927" style="fill:#FFFFFF;" width="27.9334" height="18.1789"/>
<rect x="587.9219" y="135.9624" style="fill:#231F20;" width="5.7838" height="17.2921"/>
<rect x="595.9128" y="135.9624" style="fill:#231F20;" width="5.7838" height="17.2921"/>
<rect x="603.3932" y="135.9624" style="fill:#231F20;" width="5.7838" height="17.2921"/>
<polyline style="fill:#51110F;" points="104.2053,241.0453 119.7239,202.0272 126.3747,226.4135 135.6858,221.5363 
	141.4499,237.4982 "/>
<polyline style="fill:#51110F;" points="260.2779,197.1499 267.3721,181.188 276.2398,194.4896 288.2113,173.6504 
	302.8431,194.4896 325.8993,185.4001 332.5501,192.2727 "/>
<polyline style="fill:#51110F;" points="800.7679,261.8846 758.6461,225.9702 771.0609,258.7809 702.7791,243.9274 
	732.9295,257.0073 673.9589,247.6962 706.7697,256.1205 "/>
<polyline style="fill:#51110F;" points="850.8707,173.6504 865.0591,123.0888 877.0306,153.2545 894.7662,137.927 
	905.4075,167.4429 912.5017,156.1059 918.7091,168.3297 "/>
</svg>
