<?xml version="1.0" encoding="utf-8"?>
<!-- Generator: Adobe Illustrator 26.5.1, SVG Export Plug-In . SVG Version: 6.00 Build 0)  -->
<svg version="1.1" id="Layer_1" xmlns="http://www.w3.org/2000/svg" xmlns:xlink="http://www.w3.org/1999/xlink" x="0px" y="0px"
	 viewBox="0 0 1000 300" style="enable-background:new 0 0 1000 300;" xml:space="preserve">
<rect y="68.6" style="fill:#89191A;" width="1000" height="231.4"/>
<ellipse style="opacity:0.6;fill:#231F20;enable-background:new    ;" cx="117.3" cy="257" rx="30.4" ry="12.9"/>
<path style="fill:#ED1C24;" d="M95.9,245.8c-1.3-4.7-1.2-9.7-1.1-14.6c0-2.9,0.2-6,2-8.2c1.1-1.3,2.7-2.1,4.2-2.8
	c3.6-1.7,7.2-3.1,11-4.4c-2.6,3.1,1.1,8.2,5.1,8.2c4-0.1,7.2-3.5,9.1-7.1c3.8-7.3,4-16.3,0.4-23.7c8.2,4.9,14.2,13.5,16,23
	c0.8,4.3,0.8,8.8-0.6,12.9c-1.8,5.1-5.6,9.3-9.4,13.1C122.9,251.8,101.6,267.1,95.9,245.8z"/>
<path style="fill:#F47E58;" d="M95.9,209.4c4.9-10.2,6.8-21.8,5.4-33c2.4,5.2,4.8,10.6,4.7,16.3c-0.1,5.7-3.5,11.8-9,13.1"/>
<path style="fill:#F99B24;" d="M114.9,179.9c2.2-3.1,5.6-5.2,7.5-8.5c1.3-2.4,1.7-5.2,1.8-7.9c0.3-7.5-2.3-16.3-9.4-18.7
	c4.1,1.4,8.2,2.9,11.7,5.4s6.3,6.3,6.7,10.6c0.6,6.8-4.8,12.5-9.4,17.5c-4.6,5.1-5.9,10.9-8.6,16.4
	C111.5,191,111.8,184.3,114.9,179.9z"/>
<path style="fill:#FFD57F;" d="M101.7,225.8c-1.6,1.7-1.8,4.2-1.6,6.5c0.3,3.9,1.2,7.7,2.8,11.2c0.6,1.3,1.3,2.6,2.4,3.4
	c0.7,0.5,1.5,0.8,2.3,1.1c6.9,2,14.4-1.1,19.6-5.9c6.8-6.2,10.9-15.4,10.8-24.6c0-3.1-1-6.8-3.9-7.8c-1.3,3.8-2.6,7.7-4.8,11.2
	c-2.2,3.4-5.4,6.4-9.3,7.4C113.3,229.9,107.3,219.9,101.7,225.8z"/>
<path style="fill:none;" d="M353.4,373.2c0.4-0.1,0.9-0.3,1.3-0.4"/>
<ellipse style="fill:#FFFFFF;" cx="397.5" cy="205.1" rx="26.4" ry="23.9"/>
<circle style="fill:#231F20;" cx="411.3" cy="200.8" r="6"/>
<circle style="fill:#231F20;" cx="387.5" cy="201.1" r="5.8"/>
<rect x="385.8" y="222" style="fill:#FFFFFF;" width="27.9" height="18.2"/>
<rect x="387.5" y="219.3" style="fill:#231F20;" width="5.8" height="17.3"/>
<rect x="396" y="219.3" style="fill:#231F20;" width="5.8" height="17.3"/>
<rect x="405.3" y="219.3" style="fill:#231F20;" width="5.8" height="17.3"/>
</svg>
