<?xml version="1.0" encoding="utf-8"?>
<!-- Generator: Adobe Illustrator 26.5.1, SVG Export Plug-In . SVG Version: 6.00 Build 0)  -->
<svg version="1.1" id="Layer_1" xmlns="http://www.w3.org/2000/svg" xmlns:xlink="http://www.w3.org/1999/xlink" x="0px" y="0px"
	 viewBox="0 0 1000 300" style="enable-background:new 0 0 1000 300;" xml:space="preserve">
<path style="fill:#89191A;" d="M0,68.6h1000V300H0c0-46.4077,0-92.8153,0-139.223C0,130.0513,0,99.3257,0,68.6z"/>
<path style="fill:none;" d="M353.4,373.2c0.4-0.1,0.9-0.3,1.3-0.4"/>
<path style="fill:#EF3932;" d="M115.5814,216.1727c0.3764,3.1681,0.2084,6.4001-0.4945,9.512
	c13.9498-5.13,28.1243-9.6488,42.4693-13.539c-1.1049,3.8998-4.9846,6.2343-8.559,8.1456
	c-13.916,7.4409-28.1088,14.364-42.5393,20.75c1.1173-3.9344,1.9533-7.9487,2.4993-12.0022
	c-6.0377,1.6476-16.149,6.2899-21.972,5.0383C90.6891,226.7181,108.0335,220.1189,115.5814,216.1727z"/>
<path style="fill:#FEED5D;" d="M108.0976,224.3035c1.0441-0.5744,2.2523-1.2038,3.367-0.7822
	c1.8669,0.7061,1.7932,3.6232,3.4687,4.7078c0.5349,0.3463,1.1851,0.4567,1.8175,0.535c6.6734,0.826,13.6536-1.2199,18.8253-5.5176
	c0.2289,0.9242-0.637,1.7292-1.429,2.2576c-4.2873,2.8607-9.2657,4.6777-14.3877,5.2512c-2.662,0.2981-5.9231-0.0598-7.1124-2.4599
	c-0.246-0.4965-0.3812-1.052-0.7063-1.5008c-0.7311-1.0092-2.1573-1.1711-3.4028-1.1299c-3.5092,0.116-6.3323,1.4003-9.5369,2.5871
	C102.1257,227.1305,105.1805,225.9083,108.0976,224.3035z"/>
<polyline style="fill:#5C0A0C;" points="318.5834,184.3 347.847,138.8444 367.1344,184.3 388.417,122.2173 411.6949,190.0557 "/>
<polygon style="fill:#5C0A0C;" points="492.1698,267.8703 508.7969,235.9464 513.4525,257.229 525.4239,223.2466 529.4144,267.8703 
	"/>
<polyline style="fill:#5C0A0C;" points="834.022,200.697 847.3236,170.1033 856.6348,190.0557 866.611,156.1365 874.592,190.0557 
	881.9079,172.0985 889.2238,200.697 "/>
</svg>
