<?xml version="1.0" encoding="utf-8"?>
<!-- Generator: Adobe Illustrator 26.5.1, SVG Export Plug-In . SVG Version: 6.00 Build 0)  -->
<svg version="1.1" id="Layer_1" xmlns="http://www.w3.org/2000/svg" xmlns:xlink="http://www.w3.org/1999/xlink" x="0px" y="0px"
	 viewBox="0 0 81 126.2" style="enable-background:new 0 0 81 126.2;" xml:space="preserve">
<path style="fill:#FFFFFF;stroke:#000000;stroke-miterlimit:10;" d="M-47.7,228.7"/>
<rect x="21.5" y="21.5" style="fill:#FFFFFF;" width="38.5" height="104.7"/>
<rect x="10.3" y="8.1" style="fill:#FFFFFF;" width="59.5" height="5.8"/>
<rect x="55.9" y="13.5" style="fill:#FFFFFF;" width="11.3" height="5.1"/>
<rect x="15.7" y="11" style="fill:#FFFFFF;" width="44.3" height="10"/>
<rect x="21.5" y="21" width="5.1" height="105.2"/>
<rect x="32.8" y="21" width="4.6" height="105.2"/>
<rect x="43.6" y="21" width="4.6" height="105.2"/>
<rect x="55.9" y="21" width="4.6" height="105.2"/>
<rect x="21.5" y="21" width="39" height="6.7"/>
<rect x="26.7" y="120.1" width="32.6" height="6.2"/>
<rect x="50.965" y="14.8756" transform="matrix(0.8226 -0.5687 0.5687 0.8226 1.7866 40.0772)" width="28.3013" height="4.6002"/>
<rect x="13.3552" y="3.0721" transform="matrix(0.5687 -0.8226 0.8226 0.5687 -7.4142 20.3061)" width="4.6002" height="28.3013"/>
<rect x="2.3" y="5.1" width="75.1" height="5.9"/>
</svg>
