<?xml version="1.0" encoding="utf-8"?>
<!-- Generator: Adobe Illustrator 26.5.1, SVG Export Plug-In . SVG Version: 6.00 Build 0)  -->
<svg version="1.1" id="running2" xmlns="http://www.w3.org/2000/svg" xmlns:xlink="http://www.w3.org/1999/xlink" x="0px" y="0px"
	 viewBox="0 0 237.5995 377.9992" style="enable-background:new 0 0 237.5995 377.9992;" xml:space="preserve">
<path style="fill:#231F20;stroke:#000000;stroke-width:7;stroke-linecap:round;stroke-miterlimit:10;" d="M113.7003,38.4493
	c3.4034-2.2735,31.0732,26.4291,26.4179,57c-2.8289,18.5777-16.8762,33.1241-20.4525,31c-3.1544-1.8735,3.5817-15.6804,3.4088-39
	C122.8502,57.2161,111.229,40.1001,113.7003,38.4493z"/>
<rect x="131.4082" y="300.573" transform="matrix(0.9455 -0.3257 0.3257 0.9455 -98.1759 62.4203)" style="fill:#231F20;stroke:#000000;stroke-width:5;stroke-linecap:round;stroke-miterlimit:10.0001;" width="11.867" height="47.7152"/>
<polygon style="fill:#F37560;stroke:#000000;stroke-width:5.0002;stroke-linecap:round;stroke-miterlimit:10.0004;" points="
	111.0605,236.3208 177,256.3397 172.4432,267.9267 106.5037,247.9078 "/>
<ellipse style="fill:#231F20;stroke:#000000;stroke-width:7;stroke-linecap:round;stroke-miterlimit:10;" cx="118.7998" cy="267.507" rx="28.2978" ry="57.0078"/>
<ellipse style="fill:#F37375;stroke:#000000;stroke-width:12;stroke-linecap:round;stroke-miterlimit:10;" cx="137.3468" cy="160.25" rx="63.6108" ry="60.5"/>
<circle style="fill:none;stroke:#000000;stroke-width:4;stroke-linecap:round;stroke-miterlimit:10;" cx="151.7938" cy="148" r="12.25"/>
<line style="fill:none;stroke:#000000;stroke-width:4;stroke-linecap:round;stroke-miterlimit:10;" x1="133.1131" y1="128.3922" x2="170.4745" y2="140.8829"/>
<path style="fill:none;stroke:#000000;stroke-width:8;stroke-linecap:round;stroke-miterlimit:10;" d="M140.6444,179.7313
	c4.852,7.5441,31.942,3.4811,33,2L140.6444,179.7313z"/>
<path style="fill:#231F20;stroke:#000000;stroke-width:7;stroke-linecap:round;stroke-miterlimit:10;" d="M103,127
	c-3.9937,2.2735-36.4627-26.429-31-57c3.3196-18.5777,19.8034-33.1241,24-31c3.7016,1.8735-4.2029,15.6804-4,39
	C92.263,108.2332,105.8999,125.3491,103,127z"/>
<ellipse transform="matrix(0.6344 -0.773 0.773 0.6344 -220.4111 249.0325)" style="fill:#231F20;stroke:#000000;stroke-width:5;stroke-linecap:round;stroke-miterlimit:10;" cx="153.066" cy="357.5298" rx="7" ry="20.85"/>
<path style="fill:#231F20;stroke:#000000;stroke-width:3;stroke-linecap:round;stroke-miterlimit:10;" d="M88.6883,293.4016
	c-3.5896,6.1642-8.9451,13.2295-15.9901,12.1118c-2.7918-0.443-5.1883-2.1666-7.4529-3.8583
	c-6.778-5.0636-13.7908-10.4626-22.125-11.9192s-18.3304,2.6221-20.3188,10.8457c2.1737-7.3579,2.9738-15.1191,2.347-22.7658
	c-8.9998,11.5847-10.2474,27.2103-11.1403,41.8528c9.7726-3.3755,19.2873-7.4976,28.4337-12.3186
	c-5.5547-0.9724-11.1093-1.9446-16.6639-2.9171c4.9308-2.5105,10.145-5.0862,15.6729-4.8464
	c13.7834,0.598,23.5205,18.1016,37.156,16.0017c5.6985-0.8776,10.2499-5.1181,14.0452-9.4585
	c3.2966-3.7701,6.5088-8.5222,5.3951-13.404c-0.8229-3.6073-3.1622-6.0579-6.4858-6.4601
	C90.7998,288.6237,89.9601,291.2176,88.6883,293.4016z"/>
<polygon style="fill:#231F20;stroke:#000000;stroke-width:5;stroke-linecap:round;stroke-miterlimit:10.0001;" points="
	115.1799,301.6425 103.7084,350.2874 91.6289,347.3871 103.1004,298.7422 "/>
<ellipse transform="matrix(0.5904 -0.8071 0.8071 0.5904 -244.9432 232.4044)" style="fill:#231F20;stroke:#000000;stroke-width:5;stroke-linecap:round;stroke-miterlimit:9.9999;" cx="106.5049" cy="357.5326" rx="6.9999" ry="20.8499"/>
<rect x="125.1246" y="235.8497" transform="matrix(0.927 -0.375 0.375 0.927 -90.6017 69.4386)" style="fill:#F37560;stroke:#000000;stroke-width:4.9998;stroke-linecap:round;stroke-miterlimit:9.9996;" width="15.9666" height="63.3055"/>
<polygon style="fill:#680C0C;stroke:#000000;stroke-width:5;stroke-linecap:round;stroke-miterlimit:10;" points="
	188.6725,237.7447 136.3414,319.0457 145.9426,324.4139 197.4008,242.6248 215.4107,245.2484 234.6706,210.8017 205.8136,228.603 
	223.5374,185.6333 191.4118,220.5507 205.7898,185.4309 180.807,219.0266 "/>
<path style="fill:#414042;" d="M43.0688,214.0896c8.1077,4.0753,15.121,12.2868,22.8346,17.0663
	c4.0625,2.5172,8.5335,4.3733,13.1843,5.4733c7.017,1.6597,14.9661-4.6743,17.297-11.4979
	c-9.6334-1.4651-18.6555-2.3398-28.2889-3.8049c-2.7492-0.4181-6.8299,0.405-6.3503,3.1441
	c0.2112,1.206,1.3458,2.0028,1.9676,3.0575s0.1847,2.9335-1.0248,2.7435c-3.6895-7.9404-10.4602-14.4002-18.5652-17.7126
	C43.0203,212.1082,42.0043,213.5546,43.0688,214.0896z"/>
<path style="fill:#3E3E3F;stroke:#000000;stroke-width:3;stroke-linecap:round;stroke-miterlimit:10;" d="M97.0284,224.9659
	c-4.9455,0.2756-9.6827-2.4781-12.9285-6.2195c-3.2458-3.7414-5.2322-8.3893-7.0327-13.0036
	c-0.4116-1.0549-0.8507-2.1614-1.7254-2.8805c-1.847-1.5185-4.5847-0.6452-6.9651-0.8714
	c-4.9375-0.4694-7.9134-5.6152-9.6201-10.2721c-2.3777-6.4877-3.9406-13.2736-4.6401-20.1477
	c-3.3034,11.1631-6.6067,22.3261-9.9101,33.4892c-1.2482,4.2182,1.2184,7.7551-0.6048,11.7585"/>
<path style="fill:#434345;stroke:#000000;stroke-width:3;stroke-linecap:round;stroke-miterlimit:10;" d="M93.0076,235.9053
	c-12.7565-1.1817-23.7169-12.7469-24.2124-25.5484c0.2343,4.9582-5.6866,8.4547-10.5434,7.4301s-8.4863-5.0639-11.1587-9.2468
	c-7.5256-11.7792-10.162-26.5805-7.1665-40.2337c-7.9264,28.4394-15.8528,56.8788-23.7793,85.3181
	c8.8841-4.7991,20.7799-3.2022,28.0838,3.77c16.6407-5.2542,36.5622,5.2522,41.6245,21.9523"/>
</svg>
