<?xml version="1.0" encoding="utf-8"?>
<!-- Generator: Adobe Illustrator 26.5.1, SVG Export Plug-In . SVG Version: 6.00 Build 0)  -->
<svg version="1.1" id="running2" xmlns="http://www.w3.org/2000/svg" xmlns:xlink="http://www.w3.org/1999/xlink" x="0px" y="0px"
	 viewBox="0 0 237.5995 377.9992" style="enable-background:new 0 0 237.5995 377.9992;" xml:space="preserve">
<path style="fill:#231F20;stroke:#000000;stroke-width:7;stroke-linecap:round;stroke-miterlimit:10;" d="M113.7003,38.4493
	c3.4034-2.2735,31.0732,26.4291,26.4179,57c-2.8289,18.5777-16.8762,33.1241-20.4525,31c-3.1544-1.8735,3.5817-15.6804,3.4088-39
	C122.8502,57.2161,111.229,40.1001,113.7003,38.4493z"/>
<rect x="134.7243" y="298.7215" transform="matrix(0.9013 -0.4333 0.4333 0.9013 -125.8792 92.7963)" style="fill:#231F20;stroke:#000000;stroke-width:5.0003;stroke-linecap:round;stroke-miterlimit:10.0009;" width="11.8678" height="47.7186"/>
<polygon style="fill:#F37560;stroke:#000000;stroke-width:5.0002;stroke-linecap:round;stroke-miterlimit:10.0004;" points="
	128.1121,246.0401 190.1989,216.14 194.6882,227.7533 132.6015,257.6534 "/>
<ellipse style="fill:#231F20;stroke:#000000;stroke-width:7;stroke-linecap:round;stroke-miterlimit:10;" cx="118.7998" cy="267.507" rx="28.2978" ry="57.0078"/>
<polygon style="fill:#680C0C;stroke:#000000;stroke-width:5;stroke-linecap:round;stroke-miterlimit:10;" points="175.9008,191.585 
	204.9907,283.7922 215.2555,279.838 185.2323,187.9903 198.7598,175.8145 184.5732,138.987 179.8237,172.5587 158.1001,131.466 
	164.4266,178.49 146.6026,144.9873 156.4772,185.6726 "/>
<ellipse style="fill:#F37375;stroke:#000000;stroke-width:12;stroke-linecap:round;stroke-miterlimit:10;" cx="137.3468" cy="160.25" rx="63.6108" ry="60.5"/>
<circle style="fill:none;stroke:#000000;stroke-width:4;stroke-linecap:round;stroke-miterlimit:10;" cx="157.1444" cy="154.36" r="12.25"/>
<line style="fill:none;stroke:#000000;stroke-width:4;stroke-linecap:round;stroke-miterlimit:10;" x1="147.0976" y1="128.8909" x2="176.3075" y2="155.3233"/>
<path style="fill:none;stroke:#000000;stroke-width:8;stroke-linecap:round;stroke-miterlimit:10;" d="M154.1405,188.3758
	c4.6536,4.4925,18.4332-3.869,18.6219-5.1532L154.1405,188.3758z"/>
<path style="fill:#231F20;stroke:#000000;stroke-width:7;stroke-linecap:round;stroke-miterlimit:10;" d="M103,127
	c-3.9937,2.2735-36.4627-26.429-31-57c3.3196-18.5777,19.8034-33.1241,24-31c3.7016,1.8735-4.2029,15.6804-4,39
	C92.263,108.2332,105.8999,125.3491,103,127z"/>
<ellipse transform="matrix(0.2922 -0.9564 0.9564 0.2922 -223.5961 404.4145)" style="fill:#231F20;stroke:#000000;stroke-width:5.0002;stroke-linecap:round;stroke-miterlimit:10.0004;" cx="161.4145" cy="353.2633" rx="6.792" ry="20.3135"/>
<path style="fill:#231F20;stroke:#000000;stroke-width:3;stroke-linecap:round;stroke-miterlimit:10;" d="M92.8988,305.6884
	c3.2591-0.8195,5.2913-4.0632,5.6746-8.5819c0.5188-6.1152-3.2519-11.6482-6.9881-15.9648
	c-4.3013-4.9695-9.3431-9.7423-15.1203-10.2654c-13.8239-1.2516-21.4006,21.2354-35.0458,23.3176
	c-5.4725,0.835-10.9728-1.8247-16.1832-4.4319c5.4106-1.7391,10.8212-3.4779,16.2319-5.2169
	c-9.6849-5.0381-19.6519-9.1804-29.7854-12.3789c2.6569,17.9284,5.7856,37.0319,16.1414,50.4062
	c-0.2997-9.4695-2.0332-18.9405-5.0851-27.7811c2.972,9.9238,13.413,13.9657,21.5314,11.3594s14.4457-9.9341,20.5798-16.8263
	c2.0495-2.3026,4.2264-4.6574,6.9513-5.4752c6.8763-2.0634,13.0595,6.1064,17.3763,13.34
	C90.7071,299.752,91.856,302.8614,92.8988,305.6884z"/>
<polygon style="fill:#231F20;stroke:#000000;stroke-width:5;stroke-linecap:round;stroke-miterlimit:10.0001;" points="
	117.5976,307.145 89.9696,348.7937 79.6453,341.8846 107.2733,300.2359 "/>
<ellipse transform="matrix(0.5904 -0.8071 0.8071 0.5904 -244.2933 222.1579)" style="fill:#231F20;stroke:#000000;stroke-width:5;stroke-linecap:round;stroke-miterlimit:9.9997;" cx="96.7345" cy="351.769" rx="6.9997" ry="20.8495"/>
<path style="fill:#414042;" d="M43.0688,214.0896c8.1077,4.0753,15.121,12.2868,22.8346,17.0663
	c4.0625,2.5172,8.5335,4.3733,13.1843,5.4733c7.017,1.6597,14.9661-4.6743,17.297-11.4979
	c-9.6334-1.4651-18.6555-2.3398-28.2889-3.8049c-2.7492-0.4181-6.8299,0.405-6.3503,3.1441
	c0.2112,1.206,1.3458,2.0028,1.9676,3.0575s0.1847,2.9335-1.0248,2.7435c-3.6895-7.9404-10.4602-14.4002-18.5652-17.7126
	C43.0203,212.1082,42.0043,213.5546,43.0688,214.0896z"/>
<path style="fill:#3E3E3F;stroke:#000000;stroke-width:3;stroke-linecap:round;stroke-miterlimit:10;" d="M97.0284,224.9659
	c-4.9455,0.2756-9.6827-2.4781-12.9285-6.2195c-3.2458-3.7414-5.2322-8.3893-7.0327-13.0036
	c-0.4116-1.0549-0.8507-2.1614-1.7254-2.8805c-1.847-1.5185-4.5847-0.6452-6.9651-0.8714
	c-4.9375-0.4694-7.9134-5.6152-9.6201-10.2721c-2.3777-6.4877-3.9406-13.2736-4.6401-20.1477
	c-3.3034,11.1631-6.6067,22.3261-9.9101,33.4892c-1.2482,4.2182,1.2184,7.7551-0.6048,11.7585"/>
<path style="fill:#434345;stroke:#000000;stroke-width:3;stroke-linecap:round;stroke-miterlimit:10;" d="M93.0076,235.9053
	c-12.7565-1.1817-23.7169-12.7469-24.2124-25.5484c0.2343,4.9582-5.6866,8.4547-10.5434,7.4301s-8.4863-5.0639-11.1587-9.2468
	c-7.5256-11.7792-10.162-26.5805-7.1665-40.2337c-7.9264,28.4394-15.8528,56.8788-23.7793,85.3181
	c8.8841-4.7991,20.7799-3.2022,28.0838,3.77c16.6407-5.2542,36.5622,5.2522,41.6245,21.9523"/>
<rect x="89.0349" y="193.8315" transform="matrix(0.7805 -0.6251 0.6251 0.7805 -119.6612 110.1352)" style="fill:#F37560;stroke:#000000;stroke-width:4.9995;stroke-linecap:round;stroke-miterlimit:9.9991;" width="15.9656" height="63.3018"/>
</svg>
