<?xml version="1.0" encoding="utf-8"?>
<!-- Generator: Adobe Illustrator 26.5.1, SVG Export Plug-In . SVG Version: 6.00 Build 0)  -->
<svg version="1.1" id="running2" xmlns="http://www.w3.org/2000/svg" xmlns:xlink="http://www.w3.org/1999/xlink" x="0px" y="0px"
	 viewBox="0 0 237.5995 377.9992" style="enable-background:new 0 0 237.5995 377.9992;" xml:space="preserve">
<path style="fill:#231F20;stroke:#000000;stroke-width:7;stroke-linecap:round;stroke-miterlimit:10;" d="M113.7003,38.4493
	c3.4034-2.2735,31.0732,26.4291,26.4179,57c-2.8289,18.5777-16.8762,33.1241-20.4525,31c-3.1544-1.8735,3.5817-15.6804,3.4088-39
	C122.8502,57.2161,111.229,40.1001,113.7003,38.4493z"/>
<rect x="133.3188" y="303.3313" transform="matrix(0.9093 -0.4162 0.4162 0.9093 -123.5394 87.6387)" style="fill:#231F20;stroke:#000000;stroke-width:5;stroke-linecap:round;stroke-miterlimit:10;" width="11.867" height="47.7152"/>
<polygon style="fill:#F37560;stroke:#000000;stroke-width:5.0002;stroke-linecap:round;stroke-miterlimit:10.0004;" points="
	130.6192,231.77 176.8013,275.6225 167.9671,285.73 121.7851,241.8775 "/>
<ellipse style="fill:#231F20;stroke:#000000;stroke-width:7;stroke-linecap:round;stroke-miterlimit:10;" cx="118.7998" cy="267.507" rx="28.2978" ry="57.0078"/>
<ellipse style="fill:#F37375;stroke:#000000;stroke-width:12;stroke-linecap:round;stroke-miterlimit:10;" cx="118.7998" cy="156.4845" rx="63.6108" ry="60.5"/>
<circle style="fill:none;stroke:#000000;stroke-width:4;stroke-linecap:round;stroke-miterlimit:10;" cx="139.25" cy="155.25" r="12.25"/>
<line style="fill:none;stroke:#000000;stroke-width:4;stroke-linecap:round;stroke-miterlimit:10;" x1="127" y1="128" x2="160" y2="155.25"/>
<path style="fill:none;stroke:#000000;stroke-width:8;stroke-linecap:round;stroke-miterlimit:10;" d="M118.7998,183.8443
	c4.852,7.5441,13.2121,11.4878,21,10c6.9626-1.3301,10.942-6.5189,12-8"/>
<path style="fill:#231F20;stroke:#000000;stroke-width:7;stroke-linecap:round;stroke-miterlimit:10;" d="M103,127
	c-3.9937,2.2735-36.4627-26.429-31-57c3.3196-18.5777,19.8034-33.1241,24-31c3.7016,1.8735-4.2029,15.6804-4,39
	C92.263,108.2332,105.8999,125.3491,103,127z"/>
<ellipse style="fill:#231F20;stroke:#000000;stroke-width:5;stroke-linecap:round;stroke-miterlimit:10;" cx="160" cy="350" rx="20.8501" ry="7"/>
<path style="fill:#231F20;stroke:#000000;stroke-width:3;stroke-linecap:round;stroke-miterlimit:10;" d="M86.5212,301.7266
	c-6.9584,1.5693-15.7793,2.4593-19.7586-3.4608c-1.5769-2.346-1.9468-5.2747-2.2502-8.0851
	c-0.908-8.4117-1.7303-17.2238-6.3394-24.3186s-14.4034-11.6371-21.7794-7.4928c6.8683-3.4191,13.0965-8.1187,18.269-13.7852
	c-14.6121,1.299-26.9039,11.0267-38.2342,20.3447c9.1271,4.8574,18.6252,9.0175,28.3843,12.432
	c-3.0708-4.7297-6.1416-9.4593-9.2123-14.189c5.1963,1.901,10.6333,3.9651,14.2223,8.1763
	c8.9488,10.5004,2.7626,29.5508,13.5863,38.1056c4.5234,3.5752,10.7282,4.0202,16.4912,3.8435
	c5.0058-0.1535,10.6731-1.0375,13.4895-5.1776c2.0811-3.0592,2.2825-6.4411,0.3136-9.1488
	C91.4579,300.019,88.9866,301.1706,86.5212,301.7266z"/>
<rect x="79.5378" y="331.6942" transform="matrix(0.4027 -0.9153 0.9153 0.4027 -247.2831 296.3011)" style="fill:#231F20;stroke:#000000;stroke-width:4.9999;stroke-linecap:round;stroke-miterlimit:9.9998;" width="47.7141" height="11.8667"/>
<ellipse style="fill:#231F20;stroke:#000000;stroke-width:5;stroke-linecap:round;stroke-miterlimit:10;" cx="103.571" cy="357" rx="20.8501" ry="7"/>
<rect x="63.4225" y="260.5889" transform="matrix(0.4641 -0.8858 0.8858 0.4641 -186.9458 228.1474)" style="fill:#F37560;stroke:#000000;stroke-width:5;stroke-linecap:round;stroke-miterlimit:10;" width="63.308" height="15.9673"/>
<polygon style="fill:#680C0C;stroke:#000000;stroke-width:5;stroke-linecap:round;stroke-miterlimit:10;" points="
	190.6778,238.0215 143.5,322.4173 153.4162,327.1785 199.6926,242.3498 217.8307,243.8492 234.9127,208.2722 207.2177,227.8323 
	222.2371,183.8443 192.3434,220.6905 204.5112,184.7451 181.6644,219.8284 "/>
</svg>
